<svg width="26" height="26" viewBox="0 0 26 26" fill="none" xmlns="http://www.w3.org/2000/svg">
	<path d="m 23.9873,8.38486 c 0,-0.0603 -0.02,-0.1184 -0.037,-0.17872 -0.017,-0.0592 -0.033,-0.11612 -0.061,-0.17077 -0.01,-0.0194 -0.01,-0.0398 -0.021,-0.0592 -1.8769,-3.10662 -4.5203,-5.73415 -7.6472,-7.597543 -0.018,-0.01138 -0.04,-0.01138 -0.06,-0.02163 -0.054,-0.02732 -0.11,-0.04326 -0.1696,-0.06034 -0.062,-0.01708 -0.1214,-0.03301 -0.1845,-0.03643 -0.021,0 -0.038,-0.01025 -0.058,-0.01025 H 7.5 C 4.46693,0.25 2,2.70097 2,5.71428 V 20.2857 C 2,23.2991 4.46699,25.75 7.5,25.75 h 11 c 3.0331,0 5.5,-2.451 5.5,-5.4643 V 8.44643 c 0,-0.0216 -0.01,-0.0399 -0.013,-0.0616 z M 21.3748,7.53561 h -1.0416 c -2.0212,0 -3.6666,-1.63474 -3.6666,-3.64286 V 2.85794 c 1.8127,1.29322 3.4064,2.87667 4.7082,4.67767 z M 18.4999,23.9285 H 7.49992 c -2.02125,0 -3.66667,-1.6348 -3.66667,-3.6429 V 5.71419 c 0,-2.00813 1.64542,-3.64286 3.66667,-3.64286 h 7.33328 v 1.82142 c 0,3.01337 2.467,5.46429 5.5,5.46429 h 1.8334 V 20.2856 c 0,2.0081 -1.6454,3.6429 -3.6667,3.6429 z m -1.8333,-9.8506 v -1.9888 c 0,-2.0081 -1.6454,-3.64283 -3.6667,-3.64283 -2.0212,0 -3.66665,1.63473 -3.66665,3.64283 v 1.9888 c -1.06448,0.3779 -1.83333,1.3786 -1.83333,2.5648 v 2.7322 c 0,1.506 1.23405,2.7321 2.74998,2.7321 h 5.5 c 1.516,0 2.75,-1.2261 2.75,-2.7321 v -2.7322 c 0,-1.1862 -0.7688,-2.1869 -1.8333,-2.5648 z m -5.5,-1.9888 c 0,-1.004 0.8227,-1.8214 1.8333,-1.8214 1.0106,0 1.8333,0.8174 1.8333,1.8214 v 1.8215 h -3.6666 z m 5.5,7.2858 c 0,0.502 -0.4114,0.9106 -0.9167,0.9106 h -5.5 c -0.50531,0 -0.91665,-0.4086 -0.91665,-0.9106 v -2.7322 c 0,-0.5021 0.41134,-0.9107 0.91665,-0.9107 h 5.5 c 0.5053,0 0.9167,0.4086 0.9167,0.9107 z" fill="#1377F9"/>
</svg>